<?xml version="1.0" encoding="UTF-8" standalone="no"?>
<!-- Created with Inkscape (http://www.inkscape.org/) -->

<svg
   version="1.1"
   id="svg1"
   width="328.32001"
   height="240"
   viewBox="0 0 328.32001 240"
   sodipodi:docname="current_response.svg"
   inkscape:version="1.3 (0e150ed, 2023-07-21)"
   xmlns:inkscape="http://www.inkscape.org/namespaces/inkscape"
   xmlns:sodipodi="http://sodipodi.sourceforge.net/DTD/sodipodi-0.dtd"
   xmlns="http://www.w3.org/2000/svg"
   xmlns:svg="http://www.w3.org/2000/svg">
  <defs
     id="defs1">
    <clipPath
       clipPathUnits="userSpaceOnUse"
       id="clipPath33">
      <path
         d="M 64.695897,45.213551 H 185.91946 V 141.66425 H 64.695897 Z"
         id="path33" />
    </clipPath>
    <clipPath
       clipPathUnits="userSpaceOnUse"
       id="clipPath35">
      <path
         d="M 64.695897,45.213551 H 185.91946 V 141.66425 H 64.695897 Z"
         id="path35" />
    </clipPath>
    <clipPath
       clipPathUnits="userSpaceOnUse"
       id="clipPath37">
      <path
         d="M 64.695897,45.213551 H 185.91946 V 141.66425 H 64.695897 Z"
         id="path37" />
    </clipPath>
    <clipPath
       clipPathUnits="userSpaceOnUse"
       id="clipPath39">
      <path
         d="M 64.695897,45.213551 H 185.91946 V 141.66425 H 64.695897 Z"
         id="path39" />
    </clipPath>
  </defs>
  <sodipodi:namedview
     id="namedview1"
     pagecolor="#ffffff"
     bordercolor="#000000"
     borderopacity="0.25"
     inkscape:showpageshadow="2"
     inkscape:pageopacity="0.0"
     inkscape:pagecheckerboard="0"
     inkscape:deskcolor="#d1d1d1"
     inkscape:zoom="2.0035373"
     inkscape:cx="152.48032"
     inkscape:cy="106.81109"
     inkscape:window-width="1472"
     inkscape:window-height="891"
     inkscape:window-x="0"
     inkscape:window-y="37"
     inkscape:window-maximized="1"
     inkscape:current-layer="g1">
    <inkscape:page
       x="0"
       y="0"
       inkscape:label="1"
       id="page1"
       width="328.32001"
       height="240"
       margin="0"
       bleed="0" />
  </sodipodi:namedview>
  <g
     id="g1"
     inkscape:groupmode="layer"
     inkscape:label="1">
    <path
       id="path2"
       d="M 106.26119,179.71527 H 267.89261 V 51.114338 H 106.26119 Z"
       style="fill:#ffffff;fill-opacity:1;fill-rule:nonzero;stroke:none;stroke-width:1.33333" />
    <path
       id="path3"
       d="m 106.26119,179.71527 v 4.66666"
       style="fill:#000000;fill-opacity:1;fill-rule:nonzero;stroke:#000000;stroke-width:1.06667;stroke-linecap:butt;stroke-linejoin:round;stroke-miterlimit:10;stroke-dasharray:none;stroke-opacity:1" />
    <path
       id="path4"
       d="m 109.5,195.02344 c 0,-1.32813 -0.0781,-2.625 -0.65625,-3.82813 -0.65625,-1.32812 -1.79687,-1.67187 -2.57812,-1.67187 -0.92188,0 -2.0625,0.45312 -2.64063,1.78125 -0.45312,1 -0.60937,1.98437 -0.60937,3.71875 0,1.54687 0.10937,2.70312 0.6875,3.82812 0.60937,1.21875 1.71875,1.59375 2.54687,1.59375 1.39063,0 2.1875,-0.82812 2.64063,-1.75 0.57812,-1.1875 0.60937,-2.75 0.60937,-3.67187 z m -3.25,5.10937 c -0.51562,0 -1.54687,-0.28125 -1.84375,-2.03125 -0.1875,-0.95312 -0.1875,-2.15625 -0.1875,-3.28125 0,-1.29687 0,-2.48437 0.26563,-3.42187 0.26562,-1.0625 1.07812,-1.5625 1.76562,-1.5625 0.60938,0 1.53125,0.375 1.82813,1.73437 0.20312,0.90625 0.20312,2.17188 0.20312,3.25 0,1.07813 0,2.28125 -0.17187,3.25 -0.29688,1.76563 -1.29688,2.0625 -1.85938,2.0625 z m 0,0"
       style="fill:#000000;fill-opacity:1;fill-rule:nonzero;stroke:none;stroke-width:1.33333"
       aria-label="0" />
    <path
       id="path5"
       d="m 146.66905,179.71527 v 4.66666"
       style="fill:#000000;fill-opacity:1;fill-rule:nonzero;stroke:#000000;stroke-width:1.06667;stroke-linecap:butt;stroke-linejoin:round;stroke-miterlimit:10;stroke-dasharray:none;stroke-opacity:1" />
    <path
       id="path6"
       d="m 147.35938,189.89844 c 0,-0.35938 0,-0.375 -0.32813,-0.375 -0.375,0.42187 -1.17187,1.01562 -2.8125,1.01562 v 0.46875 c 0.35938,0 1.15625,0 2.03125,-0.42187 v 8.29687 c 0,0.57813 -0.0469,0.76563 -1.4375,0.76563 h -0.5 v 0.46875 c 0.42188,-0.0312 1.96875,-0.0312 2.5,-0.0312 0.53125,0 2.0625,0 2.48438,0.0312 v -0.46875 h -0.48438 c -1.40625,0 -1.45312,-0.1875 -1.45312,-0.76563 z m 0,0"
       style="fill:#000000;fill-opacity:1;fill-rule:nonzero;stroke:none;stroke-width:1.33333"
       aria-label="1" />
    <path
       id="path7"
       d="m 187.0769,179.71527 v 4.66666"
       style="fill:#000000;fill-opacity:1;fill-rule:nonzero;stroke:#000000;stroke-width:1.06667;stroke-linecap:butt;stroke-linejoin:round;stroke-miterlimit:10;stroke-dasharray:none;stroke-opacity:1" />
    <path
       id="path8"
       d="m 190.19141,197.44531 h -0.35938 c -0.0469,0.26563 -0.17187,1.14063 -0.32812,1.39063 -0.10938,0.15625 -1.01563,0.15625 -1.5,0.15625 h -2.95313 c 0.4375,-0.375 1.40625,-1.39063 1.82813,-1.78125 2.42187,-2.21875 3.3125,-3.04688 3.3125,-4.625 0,-1.84375 -1.45313,-3.0625 -3.29688,-3.0625 -1.85937,0 -2.9375,1.57812 -2.9375,2.9375 0,0.8125 0.70313,0.8125 0.75,0.8125 0.32813,0 0.75,-0.23438 0.75,-0.75 0,-0.4375 -0.3125,-0.73438 -0.75,-0.73438 -0.14062,0 -0.17187,0 -0.21875,0.0156 0.29688,-1.09375 1.15625,-1.82813 2.1875,-1.82813 1.35938,0 2.1875,1.14063 2.1875,2.60938 0,1.34375 -0.78125,2.53125 -1.6875,3.54687 l -3.21875,3.60938 v 0.375 h 5.8125 z m 0,0"
       style="fill:#000000;fill-opacity:1;fill-rule:nonzero;stroke:none;stroke-width:1.33333"
       aria-label="2" />
    <path
       id="path9"
       d="m 227.48475,179.71527 v 4.66666"
       style="fill:#000000;fill-opacity:1;fill-rule:nonzero;stroke:#000000;stroke-width:1.06667;stroke-linecap:butt;stroke-linejoin:round;stroke-miterlimit:10;stroke-dasharray:none;stroke-opacity:1" />
    <path
       id="path10"
       d="m 226.51953,194.39844 c -0.28125,0.0156 -0.34375,0.0312 -0.34375,0.17187 0,0.15625 0.0781,0.15625 0.375,0.15625 h 0.73437 c 1.34375,0 1.95313,1.125 1.95313,2.65625 0,2.07813 -1.07813,2.64063 -1.85938,2.64063 -0.76562,0 -2.07812,-0.375 -2.53125,-1.42188 0.5,0.0781 0.96875,-0.20312 0.96875,-0.78125 0,-0.45312 -0.34375,-0.78125 -0.78125,-0.78125 -0.39062,0 -0.79687,0.21875 -0.79687,0.82813 0,1.42187 1.42187,2.57812 3.1875,2.57812 1.89062,0 3.29687,-1.4375 3.29687,-3.04687 0,-1.46875 -1.1875,-2.625 -2.70312,-2.89063 1.375,-0.40625 2.26562,-1.5625 2.26562,-2.8125 0,-1.25 -1.29687,-2.17187 -2.84375,-2.17187 -1.59375,0 -2.78125,0.96875 -2.78125,2.125 0,0.64062 0.5,0.76562 0.73438,0.76562 0.34375,0 0.71875,-0.23437 0.71875,-0.71875 0,-0.5 -0.375,-0.71875 -0.73438,-0.71875 -0.0937,0 -0.125,0 -0.17187,0.0156 0.60937,-1.09375 2.10937,-1.09375 2.1875,-1.09375 0.51562,0 1.5625,0.23437 1.5625,1.79687 0,0.3125 -0.0469,1.20313 -0.51563,1.89063 -0.46875,0.70312 -1.01562,0.75 -1.45312,0.76562 z m 0,0"
       style="fill:#000000;fill-opacity:1;fill-rule:nonzero;stroke:none;stroke-width:1.33333"
       aria-label="3" />
    <path
       id="path11"
       d="m 267.89261,179.71527 v 4.66666"
       style="fill:#000000;fill-opacity:1;fill-rule:nonzero;stroke:#000000;stroke-width:1.06667;stroke-linecap:butt;stroke-linejoin:round;stroke-miterlimit:10;stroke-dasharray:none;stroke-opacity:1" />
    <path
       id="path12"
       d="m 269.74219,189.74219 c 0,-0.29688 0,-0.39063 -0.21875,-0.39063 -0.125,0 -0.17188,0 -0.29688,0.20313 l -4.79687,7.4375 v 0.46875 h 4.1875 v 1.4375 c 0,0.59375 -0.0312,0.75 -1.20313,0.75 h -0.3125 v 0.46875 c 0.35938,-0.0312 1.625,-0.0312 2.07813,-0.0312 0.4375,0 1.71875,0 2.07812,0.0312 v -0.46875 h -0.3125 c -1.15625,0 -1.20312,-0.15625 -1.20312,-0.75 v -1.4375 h 1.60937 v -0.46875 h -1.60937 z m -1.04688,1.25 v 6 h -3.875 z m 0,0"
       style="fill:#000000;fill-opacity:1;fill-rule:nonzero;stroke:none;stroke-width:1.33333"
       aria-label="4" />
    <path
       id="path13"
       d="m 191.6875,210.33985 c 0,-0.95313 -0.8125,-1.95313 -2.26563,-1.95313 -2.04687,0 -3.35937,2.51563 -3.76562,4.17187 l -2.51563,10 c -0.0312,0.125 0.0625,0.15625 0.14063,0.15625 0.10937,0 0.1875,-0.0156 0.20312,-0.0937 l 1.10938,-4.46876 c 0.17187,0.89063 1.04687,1.625 1.98437,1.625 2.28125,0 4.42188,-1.78125 4.42188,-4.15625 0,-0.60937 -0.14063,-1.21875 -0.46875,-1.71875 -0.1875,-0.3125 -0.4375,-0.53125 -0.6875,-0.71875 1.14062,-0.60937 1.84375,-1.57812 1.84375,-2.84374 z m -2.76563,2.82812 c -0.25,0.0937 -0.51562,0.125 -0.8125,0.125 -0.21875,0 -0.4375,0.0156 -0.71875,-0.0781 0.15625,-0.10937 0.39063,-0.14062 0.73438,-0.14062 0.28125,0 0.57812,0.0312 0.79687,0.0937 z m 1.9375,-2.96875 c 0,0.875 -0.42187,2.15625 -1.46875,2.75 -0.29687,-0.125 -0.70312,-0.20313 -1.0625,-0.20313 -0.32812,0 -1.29687,-0.0312 -1.29687,0.48438 0,0.4375 0.89062,0.375 1.15625,0.375 0.40625,0 0.78125,-0.0937 1.15625,-0.20313 0.51562,0.42188 0.73437,0.95313 0.73437,1.75 0,0.9375 -0.25,1.67188 -0.54687,2.35938 -0.53125,1.1875 -1.78125,1.95312 -2.875,1.95312 -1.15625,0 -1.76563,-0.92187 -1.76563,-2.01562 0,-0.14063 0,-0.34375 0.0625,-0.57813 l 1.03125,-4.20312 c 0.53125,-2.07812 1.875,-3.96875 3.40625,-3.96875 1.15625,0 1.46875,0.79688 1.46875,1.5 z m 0,0"
       style="fill:#000000;fill-opacity:1;fill-rule:nonzero;stroke:none;stroke-width:1.33333"
       aria-label="β" />
    <path
       id="path14"
       d="m 106.26119,179.71527 h -4.66666"
       style="fill:#000000;fill-opacity:1;fill-rule:nonzero;stroke:#000000;stroke-width:1.06667;stroke-linecap:butt;stroke-linejoin:round;stroke-miterlimit:10;stroke-dasharray:none;stroke-opacity:1" />
    <g
       id="g14"
       aria-label="−0.05"
       transform="matrix(1.3333333,0,0,1.3333333,56.782367,185.25005)">
      <path
         id="path15"
         d="m 7.8741619,-2.753945 c 0.2109375,0 0.421875,0 0.421875,-0.234375 0,-0.234375 -0.2109375,-0.234375 -0.421875,-0.234375 h -6.46875 c -0.1992187,0 -0.41015622,0 -0.41015622,0.234375 0,0.234375 0.21093752,0.234375 0.41015622,0.234375 z m 0,0"
         style="fill:#000000;fill-opacity:1;fill-rule:nonzero;stroke:none" />
      <path
         id="path16"
         d="m 14.653459,-3.8203513 c 0,-0.9960937 -0.05859,-1.96875 -0.492188,-2.8710937 -0.492187,-0.9960938 -1.347656,-1.2539063 -1.933593,-1.2539063 -0.691407,0 -1.546875,0.3398438 -1.980469,1.3359375 -0.3398439,0.75 -0.4570314,1.4882813 -0.4570314,2.7890625 0,1.1601563 0.082031,2.0273438 0.5156254,2.87109378 0.457031,0.9140625 1.289062,1.1953125 1.910156,1.1953125 1.042969,0 1.640625,-0.62109375 1.980469,-1.31249998 0.433593,-0.890625 0.457031,-2.0625 0.457031,-2.7539063 z m -2.4375,3.83203128 c -0.386719,0 -1.160156,-0.2109375 -1.382813,-1.52343748 -0.140625,-0.7148438 -0.140625,-1.6171875 -0.140625,-2.4609375 0,-0.9726563 0,-1.8632813 0.199219,-2.5664063 0.199219,-0.796875 0.808594,-1.171875 1.324219,-1.171875 0.457031,0 1.148437,0.28125 1.371094,1.3007813 0.152343,0.6796875 0.152343,1.6289062 0.152343,2.4375 0,0.8085937 0,1.7109375 -0.128906,2.4375 -0.222656,1.32421873 -0.972656,1.54687498 -1.394531,1.54687498 z m 0,0"
         style="fill:#000000;fill-opacity:1;fill-rule:nonzero;stroke:none" />
      <path
         id="path17"
         d="m 17.354631,-0.57425752 c 0,-0.3515625 -0.292969,-0.58593748 -0.574219,-0.58593748 -0.351563,0 -0.585938,0.29296873 -0.585938,0.57421873 0,0.3515625 0.28125,0.5859374994 0.574219,0.5859374994 0.339844,0 0.585938,-0.2812499994 0.585938,-0.5742187494 z m 0,0"
         style="fill:#000000;fill-opacity:1;fill-rule:nonzero;stroke:none" />
      <path
         id="path18"
         d="m 23.758928,-3.8203513 c 0,-0.9960937 -0.05859,-1.96875 -0.492188,-2.8710937 -0.492187,-0.9960938 -1.347656,-1.2539063 -1.933594,-1.2539063 -0.691406,0 -1.546875,0.3398438 -1.980468,1.3359375 -0.339844,0.75 -0.457032,1.4882813 -0.457032,2.7890625 0,1.1601563 0.08203,2.0273438 0.515625,2.87109378 0.457032,0.9140625 1.289063,1.1953125 1.910157,1.1953125 1.042968,0 1.640625,-0.62109375 1.980468,-1.31249998 0.433594,-0.890625 0.457032,-2.0625 0.457032,-2.7539063 z m -2.4375,3.83203128 c -0.386719,0 -1.160157,-0.2109375 -1.382813,-1.52343748 C 19.79799,-2.2266013 19.79799,-3.128945 19.79799,-3.972695 c 0,-0.9726563 0,-1.8632813 0.199219,-2.5664063 0.199219,-0.796875 0.808594,-1.171875 1.324219,-1.171875 0.457031,0 1.148437,0.28125 1.371093,1.3007813 0.152344,0.6796875 0.152344,1.6289062 0.152344,2.4375 0,0.8085937 0,1.7109375 -0.128906,2.4375 -0.222656,1.32421873 -0.972656,1.54687498 -1.394531,1.54687498 z m 4.461914,-6.85546878 c 0.503906,0.1640625 0.925781,0.1757813 1.054687,0.1757813 1.359375,0 2.214844,-0.9960938 2.214844,-1.1601563 0,-0.046875 -0.02344,-0.1054687 -0.09375,-0.1054687 -0.02344,0 -0.04687,0 -0.152344,0.046875 -0.667969,0.28125 -1.242187,0.3164062 -1.558594,0.3164062 -0.785156,0 -1.347656,-0.234375 -1.582031,-0.328125 -0.08203,-0.035156 -0.105469,-0.035156 -0.117187,-0.035156 -0.09375,0 -0.09375,0.070312 -0.09375,0.2578125 v 3.5507812 c 0,0.2109375 0,0.2929688 0.140625,0.2929688 0.05859,0 0.07031,-0.011719 0.199218,-0.1640625 0.328125,-0.4921875 0.890625,-0.7734375 1.488282,-0.7734375 0.632812,0 0.949218,0.5859375 1.042968,0.7851562 0.199219,0.46875 0.210938,1.0546875 0.210938,1.5117188 0,0.4570312 0,1.1367187 -0.328125,1.67578123 -0.269531,0.421875 -0.738281,0.7265625 -1.253906,0.7265625 -0.796875,0 -1.570313,-0.5390625 -1.78125,-1.40625003 0.05859,0.023437 0.128906,0.035156 0.1875,0.035156 0.199218,0 0.527343,-0.1289063 0.527343,-0.5273438 0,-0.3398437 -0.234375,-0.5273437 -0.527343,-0.5273437 -0.210938,0 -0.527344,0.1054687 -0.527344,0.5742187 0,1.00781253 0.808594,2.16796878 2.144531,2.16796878 1.347656,0 2.53125,-1.125 2.53125,-2.64843748 0,-1.4179688 -0.960937,-2.6015625 -2.214844,-2.6015625 -0.679687,0 -1.207031,0.2929687 -1.511718,0.6328125 z m 0,0"
         style="fill:#000000;fill-opacity:1;fill-rule:nonzero;stroke:none" />
    </g>
    <path
       id="path19"
       d="m 106.26119,136.84829 h -4.66666"
       style="fill:#000000;fill-opacity:1;fill-rule:nonzero;stroke:#000000;stroke-width:1.06667;stroke-linecap:butt;stroke-linejoin:round;stroke-miterlimit:10;stroke-dasharray:none;stroke-opacity:1" />
    <g
       id="g19"
       aria-label="0.00"
       transform="matrix(1.3333333,0,0,1.3333333,69.180353,142.38308)">
      <path
         id="path20"
         d="m 5.3549694,-3.8205104 c 0,-0.9960937 -0.058594,-1.96875 -0.4921875,-2.8710937 -0.4921875,-0.9960938 -1.3476563,-1.2539063 -1.9335938,-1.2539063 -0.6914062,0 -1.546875,0.3398438 -1.98046872,1.3359375 -0.33984375,0.75 -0.45703125,1.4882813 -0.45703125,2.7890625 0,1.1601563 0.0820313,2.0273438 0.51562497,2.87109379 0.4570313,0.9140625 1.2890625,1.1953125 1.9101563,1.1953125 1.0429687,0 1.640625,-0.62109375 1.9804687,-1.31249999 0.4335938,-0.890625 0.4570313,-2.0625 0.4570313,-2.7539063 z m -2.4375,3.83203129 c -0.3867188,0 -1.1601563,-0.2109375 -1.3828125,-1.52343749 -0.140625,-0.7148438 -0.140625,-1.6171875 -0.140625,-2.4609375 0,-0.9726563 0,-1.8632813 0.1992187,-2.5664063 0.1992188,-0.796875 0.8085938,-1.171875 1.3242188,-1.171875 0.4570312,0 1.1484375,0.28125 1.3710937,1.3007813 0.1523438,0.6796875 0.1523438,1.6289062 0.1523438,2.4375 0,0.8085937 0,1.7109375 -0.1289063,2.4375 -0.2226562,1.32421874 -0.9726562,1.54687499 -1.3945312,1.54687499 z m 0,0"
         style="fill:#000000;fill-opacity:1;fill-rule:nonzero;stroke:none" />
      <path
         id="path21"
         d="m 8.0561413,-0.57441661 c 0,-0.3515625 -0.2929688,-0.58593749 -0.5742188,-0.58593749 -0.3515625,0 -0.5859375,0.29296874 -0.5859375,0.57421874 0,0.3515625 0.28125,0.5859374985 0.5742188,0.5859374985 0.3398437,0 0.5859375,-0.2812499985 0.5859375,-0.5742187485 z m 0,0"
         style="fill:#000000;fill-opacity:1;fill-rule:nonzero;stroke:none" />
      <path
         id="path22"
         d="m 14.460438,-3.8205104 c 0,-0.9960937 -0.05859,-1.96875 -0.492187,-2.8710937 -0.492188,-0.9960938 -1.347657,-1.2539063 -1.933594,-1.2539063 -0.691406,0 -1.546875,0.3398438 -1.980469,1.3359375 -0.3398436,0.75 -0.4570311,1.4882813 -0.4570311,2.7890625 0,1.1601563 0.082031,2.0273438 0.5156251,2.87109379 0.457031,0.9140625 1.289062,1.1953125 1.910156,1.1953125 1.042969,0 1.640625,-0.62109375 1.980469,-1.31249999 0.433594,-0.890625 0.457031,-2.0625 0.457031,-2.7539063 z m -2.4375,3.83203129 c -0.386719,0 -1.160156,-0.2109375 -1.382812,-1.52343749 -0.140625,-0.7148438 -0.140625,-1.6171875 -0.140625,-2.4609375 0,-0.9726563 0,-1.8632813 0.199218,-2.5664063 0.199219,-0.796875 0.808594,-1.171875 1.324219,-1.171875 0.457031,0 1.148438,0.28125 1.371094,1.3007813 0.152344,0.6796875 0.152344,1.6289062 0.152344,2.4375 0,0.8085937 0,1.7109375 -0.128907,2.4375 -0.222656,1.32421874 -0.972656,1.54687499 -1.394531,1.54687499 z m 8.282227,-3.83203129 c 0,-0.9960937 -0.05859,-1.96875 -0.492188,-2.8710937 -0.492187,-0.9960938 -1.347656,-1.2539063 -1.933594,-1.2539063 -0.691406,0 -1.546875,0.3398438 -1.980468,1.3359375 -0.339844,0.75 -0.457032,1.4882813 -0.457032,2.7890625 0,1.1601563 0.08203,2.0273438 0.515625,2.87109379 0.457032,0.9140625 1.289063,1.1953125 1.910157,1.1953125 1.042968,0 1.640625,-0.62109375 1.980468,-1.31249999 0.433594,-0.890625 0.457032,-2.0625 0.457032,-2.7539063 z m -2.4375,3.83203129 c -0.386719,0 -1.160157,-0.2109375 -1.382813,-1.52343749 -0.140625,-0.7148438 -0.140625,-1.6171875 -0.140625,-2.4609375 0,-0.9726563 0,-1.8632813 0.199219,-2.5664063 0.199219,-0.796875 0.808594,-1.171875 1.324219,-1.171875 0.457031,0 1.148437,0.28125 1.371093,1.3007813 0.152344,0.6796875 0.152344,1.6289062 0.152344,2.4375 0,0.8085937 0,1.7109375 -0.128906,2.4375 -0.222656,1.32421874 -0.972656,1.54687499 -1.394531,1.54687499 z m 0,0"
         style="fill:#000000;fill-opacity:1;fill-rule:nonzero;stroke:none" />
    </g>
    <path
       id="path23"
       d="m 106.26119,93.981324 h -4.66666"
       style="fill:#000000;fill-opacity:1;fill-rule:nonzero;stroke:#000000;stroke-width:1.06667;stroke-linecap:butt;stroke-linejoin:round;stroke-miterlimit:10;stroke-dasharray:none;stroke-opacity:1" />
    <g
       id="g23"
       aria-label="0.05"
       transform="matrix(1.3333333,0,0,1.3333333,69.180353,99.516101)">
      <path
         id="path24"
         d="m 5.3549694,-3.8206695 c 0,-0.9960937 -0.058594,-1.96875 -0.4921875,-2.8710937 -0.4921875,-0.9960938 -1.3476563,-1.2539063 -1.9335938,-1.2539063 -0.6914062,0 -1.546875,0.3398438 -1.98046872,1.3359375 -0.33984375,0.75 -0.45703125,1.4882813 -0.45703125,2.7890625 0,1.1601563 0.0820313,2.0273438 0.51562497,2.8710938 0.4570313,0.9140625 1.2890625,1.1953125 1.9101563,1.1953125 1.0429687,0 1.640625,-0.62109375 1.9804687,-1.3125 0.4335938,-0.890625 0.4570313,-2.0625 0.4570313,-2.7539063 z m -2.4375,3.8320313 c -0.3867188,0 -1.1601563,-0.2109375 -1.3828125,-1.5234375 -0.140625,-0.7148438 -0.140625,-1.6171875 -0.140625,-2.4609375 0,-0.9726563 0,-1.8632813 0.1992187,-2.5664063 0.1992188,-0.796875 0.8085938,-1.171875 1.3242188,-1.171875 0.4570312,0 1.1484375,0.28125 1.3710937,1.3007813 0.1523438,0.6796875 0.1523438,1.6289062 0.1523438,2.4375 0,0.8085937 0,1.7109375 -0.1289063,2.4375 -0.2226562,1.32421875 -0.9726562,1.546875 -1.3945312,1.546875 z m 0,0"
         style="fill:#000000;fill-opacity:1;fill-rule:nonzero;stroke:none" />
      <path
         id="path25"
         d="m 8.0561413,-0.5745757 c 0,-0.3515625 -0.2929688,-0.5859375 -0.5742188,-0.5859375 -0.3515625,0 -0.5859375,0.29296875 -0.5859375,0.57421875 0,0.3515625 0.28125,0.5859374976 0.5742188,0.5859374976 0.3398437,0 0.5859375,-0.2812499976 0.5859375,-0.5742187476 z m 0,0"
         style="fill:#000000;fill-opacity:1;fill-rule:nonzero;stroke:none" />
      <path
         id="path26"
         d="m 14.460438,-3.8206695 c 0,-0.9960937 -0.05859,-1.96875 -0.492187,-2.8710937 -0.492188,-0.9960938 -1.347657,-1.2539063 -1.933594,-1.2539063 -0.691406,0 -1.546875,0.3398438 -1.980469,1.3359375 -0.3398436,0.75 -0.4570311,1.4882813 -0.4570311,2.7890625 0,1.1601563 0.082031,2.0273438 0.5156251,2.8710938 0.457031,0.9140625 1.289062,1.1953125 1.910156,1.1953125 1.042969,0 1.640625,-0.62109375 1.980469,-1.3125 0.433594,-0.890625 0.457031,-2.0625 0.457031,-2.7539063 z m -2.4375,3.8320313 c -0.386719,0 -1.160156,-0.2109375 -1.382812,-1.5234375 -0.140625,-0.7148438 -0.140625,-1.6171875 -0.140625,-2.4609375 0,-0.9726563 0,-1.8632813 0.199218,-2.5664063 0.199219,-0.796875 0.808594,-1.171875 1.324219,-1.171875 0.457031,0 1.148438,0.28125 1.371094,1.3007813 0.152344,0.6796875 0.152344,1.6289062 0.152344,2.4375 0,0.8085937 0,1.7109375 -0.128907,2.4375 -0.222656,1.32421875 -0.972656,1.546875 -1.394531,1.546875 z m 4.461914,-6.8554688 c 0.503906,0.1640625 0.925781,0.1757813 1.054688,0.1757813 1.359375,0 2.214843,-0.9960938 2.214843,-1.1601563 0,-0.046875 -0.02344,-0.1054687 -0.09375,-0.1054687 -0.02344,0 -0.04687,0 -0.152343,0.046875 -0.667969,0.28125 -1.242188,0.3164062 -1.558594,0.3164062 -0.785156,0 -1.347656,-0.234375 -1.582031,-0.328125 -0.08203,-0.035156 -0.105469,-0.035156 -0.117188,-0.035156 -0.09375,0 -0.09375,0.070312 -0.09375,0.2578125 v 3.5507812 c 0,0.2109375 0,0.2929688 0.140625,0.2929688 0.05859,0 0.07031,-0.011719 0.199219,-0.1640625 0.328125,-0.4921875 0.890625,-0.7734375 1.488281,-0.7734375 0.632813,0 0.949219,0.5859375 1.042969,0.7851562 0.199219,0.46875 0.210937,1.0546875 0.210937,1.5117188 0,0.4570312 0,1.1367187 -0.328125,1.67578125 -0.269531,0.421875 -0.738281,0.7265625 -1.253906,0.7265625 -0.796875,0 -1.570312,-0.5390625 -1.78125,-1.40625005 0.05859,0.023437 0.128906,0.035156 0.1875,0.035156 0.199219,0 0.527344,-0.1289063 0.527344,-0.5273438 0,-0.3398437 -0.234375,-0.5273437 -0.527344,-0.5273437 -0.210937,0 -0.527344,0.1054687 -0.527344,0.5742187 0,1.00781255 0.808594,2.1679688 2.144532,2.1679688 1.347656,0 2.53125,-1.125 2.53125,-2.6484375 0,-1.4179688 -0.960938,-2.6015625 -2.214844,-2.6015625 -0.679688,0 -1.207031,0.2929687 -1.511719,0.6328125 z m 0,0"
         style="fill:#000000;fill-opacity:1;fill-rule:nonzero;stroke:none" />
    </g>
    <path
       id="path27"
       d="m 106.26119,51.114338 h -4.66666"
       style="fill:#000000;fill-opacity:1;fill-rule:nonzero;stroke:#000000;stroke-width:1.06667;stroke-linecap:butt;stroke-linejoin:round;stroke-miterlimit:10;stroke-dasharray:none;stroke-opacity:1" />
    <g
       id="g27"
       aria-label="0.10"
       transform="matrix(1.3333333,0,0,1.3333333,69.180353,56.649126)">
      <path
         id="path28"
         d="m 5.3549694,-3.8208285 c 0,-0.9960938 -0.058594,-1.96875 -0.4921875,-2.8710938 -0.4921875,-0.9960937 -1.3476563,-1.2539062 -1.9335938,-1.2539062 -0.6914062,0 -1.546875,0.3398437 -1.98046872,1.3359375 -0.33984375,0.75 -0.45703125,1.4882812 -0.45703125,2.7890625 0,1.1601562 0.0820313,2.0273437 0.51562497,2.87109371 0.4570313,0.9140625 1.2890625,1.1953125 1.9101563,1.1953125 1.0429687,0 1.640625,-0.62109375 1.9804687,-1.31250001 0.4335938,-0.890625 0.4570313,-2.0625 0.4570313,-2.7539062 z m -2.4375,3.83203121 c -0.3867188,0 -1.1601563,-0.2109375 -1.3828125,-1.52343751 -0.140625,-0.7148437 -0.140625,-1.6171875 -0.140625,-2.4609375 0,-0.9726562 0,-1.8632812 0.1992187,-2.5664062 0.1992188,-0.796875 0.8085938,-1.171875 1.3242188,-1.171875 0.4570312,0 1.1484375,0.28125 1.3710937,1.3007812 0.1523438,0.6796875 0.1523438,1.6289063 0.1523438,2.4375 0,0.8085938 0,1.7109375 -0.1289063,2.4375 -0.2226562,1.32421876 -0.9726562,1.54687501 -1.3945312,1.54687501 z m 0,0"
         style="fill:#000000;fill-opacity:1;fill-rule:nonzero;stroke:none" />
      <path
         id="path29"
         d="m 8.0561413,-0.57473479 c 0,-0.3515625 -0.2929688,-0.58593751 -0.5742188,-0.58593751 -0.3515625,0 -0.5859375,0.29296876 -0.5859375,0.57421876 0,0.3515625 0.28125,0.5859374966 0.5742188,0.5859374966 0.3398437,0 0.5859375,-0.2812499966 0.5859375,-0.5742187466 z m 0,0"
         style="fill:#000000;fill-opacity:1;fill-rule:nonzero;stroke:none" />
      <path
         id="path30"
         d="m 12.550282,-7.6645785 c 0,-0.2695313 0,-0.28125 -0.246094,-0.28125 -0.28125,0.3164062 -0.878906,0.7617187 -2.109375,0.7617187 v 0.3515625 c 0.269531,0 0.867188,0 1.523438,-0.3164062 v 6.22265621 c 0,0.43359375 -0.03516,0.57421875 -1.078125,0.57421875 h -0.375 v 0.3515624966 c 0.316406,-0.0234374966 1.476562,-0.0234374966 1.875,-0.0234374966 0.398437,0 1.546875,0 1.863281,0.0234374966 V -0.35207854 h -0.363281 c -1.054688,0 -1.089844,-0.140625 -1.089844,-0.57421875 z m 7.754883,3.84375 c 0,-0.9960938 -0.05859,-1.96875 -0.492188,-2.8710938 -0.492187,-0.9960937 -1.347656,-1.2539062 -1.933594,-1.2539062 -0.691406,0 -1.546875,0.3398437 -1.980468,1.3359375 -0.339844,0.75 -0.457032,1.4882812 -0.457032,2.7890625 0,1.1601562 0.08203,2.0273437 0.515625,2.87109371 0.457032,0.9140625 1.289063,1.1953125 1.910157,1.1953125 1.042968,0 1.640625,-0.62109375 1.980468,-1.31250001 0.433594,-0.890625 0.457032,-2.0625 0.457032,-2.7539062 z m -2.4375,3.83203121 c -0.386719,0 -1.160157,-0.2109375 -1.382813,-1.52343751 -0.140625,-0.7148437 -0.140625,-1.6171875 -0.140625,-2.4609375 0,-0.9726562 0,-1.8632812 0.199219,-2.5664062 0.199219,-0.796875 0.808594,-1.171875 1.324219,-1.171875 0.457031,0 1.148437,0.28125 1.371093,1.3007812 0.152344,0.6796875 0.152344,1.6289063 0.152344,2.4375 0,0.8085938 0,1.7109375 -0.128906,2.4375 -0.222656,1.32421876 -0.972656,1.54687501 -1.394531,1.54687501 z m 0,0"
         style="fill:#000000;fill-opacity:1;fill-rule:nonzero;stroke:none" />
    </g>
    <path
       id="path31"
       d="m 44.097656,154.78125 c -0.859375,0 -1.5,0 -2.125,0.70313 -0.515625,0.5625 -0.734375,1.28125 -0.734375,1.98437 0,1.29688 0.859375,2.3125 1.890625,2.3125 0.46875,0 0.6875,-0.3125 0.6875,-0.67187 0,-0.39063 -0.265625,-0.65625 -0.65625,-0.65625 -0.640625,0 -0.640625,0.57812 -0.640625,0.8125 -0.671875,-0.375 -0.96875,-1.14063 -0.96875,-1.76563 0,-0.73437 0.609375,-1.67187 2.046875,-1.67187 h 0.640625 c 0.04687,3.20312 1.390625,4.40625 2.609375,4.40625 1.265625,0 1.65625,-1.46875 1.65625,-2.4375 0,-1.04688 -0.640625,-1.76563 -1.40625,-2.07813 0.75,-0.0625 1.328125,-0.54687 1.328125,-1.23437 0,-0.34375 -0.21875,-1.26563 -1.5,-1.26563 h -0.890625 v 0.35938 h 0.890625 c 0.90625,0 1.046875,0.375 1.046875,0.60937 0,0.59375 -0.859375,0.59375 -1.09375,0.59375 z m 2,1.04688 c 1.5625,0 2.09375,1.15625 2.09375,1.84375 0,0.78125 -0.578125,1.4375 -1.34375,1.4375 -2.109375,0 -2.296875,-2.71875 -2.328125,-3.28125 z m -3.109375,-8.75 c -0.34375,-0.14063 -1.03125,-0.42188 -1.046875,-1.4375 h -0.46875 c 0.03125,0.46875 0.03125,0.6875 0.03125,1.1875 0,0.32812 0,0.5625 -0.03125,1.29687 h 0.46875 c 0.03125,-0.67187 0.515625,-0.75 0.6875,-0.75 0.140625,0 0.21875,0.0312 0.40625,0.10937 l 4.109375,1.62501 -4.484375,1.79687 c -0.21875,0.0781 -0.21875,0.0937 -0.3125,0.0937 -0.40625,0 -0.40625,-0.60937 -0.40625,-0.89062 h -0.46875 c 0.03125,0.39062 0.03125,1.21875 0.03125,1.65625 0,0.51562 0,0.54687 -0.03125,1.53124 h 0.46875 c 0,-0.89062 0.0625,-1.06249 0.5625,-1.24999 l 5.703125,-2.28125 c 0.21875,-0.0781 0.296875,-0.10938 0.296875,-0.29688 0,-0.10937 -0.03125,-0.20312 -0.296875,-0.32812 z m 1.65625,-7.40235 c 0,-0.34375 0,-0.375 -0.296875,-0.375 -1.609375,0 -3.109375,0.85938 -3.109375,2.78125 0,1.82813 1.640625,3.21875 3.625,3.21875 2.09375,0 3.640625,-1.625 3.640625,-3.39062 0,-1.89063 -1.71875,-2.60938 -2.046875,-2.60938 -0.109374,0 -0.171875,0.0781 -0.171875,0.17188 0,0.125 0.09375,0.15625 0.171875,0.1875 1.328125,0.42187 1.703125,1.48437 1.703125,2.15625 0,0.67187 -0.453125,2.28125 -3.203125,2.28125 h -0.3125 z m -0.296875,4.40625 c -2.5,-0.125 -2.796875,-1.53125 -2.796875,-1.98437 0,-1.70313 2.25,-1.79688 2.796875,-1.8125 z m 0.28125,-7.88672 c -1.546875,0 -2.984375,-0.64062 -2.984375,-1.875 0,-0.125 0,-0.15625 0.01563,-0.21875 0.0625,0.125 0.15625,0.39063 0.578125,0.39063 0.46875,0 0.640625,-0.375 0.640625,-0.625 0,-0.32813 -0.203125,-0.64063 -0.640625,-0.64063 -0.46875,0 -0.921875,0.42188 -0.921875,1.10938 0,1.35937 1.46875,1.82812 1.765625,1.92187 v 0.0156 h -1.765625 l 0.171875,2.125 h 0.46875 c 0,-1.07812 0.109374,-1.20312 0.890625,-1.20312 h 4.328124 c 0.703125,0 0.703125,0.17187 0.703125,1.20312 h 0.46875 c -0.03125,-0.4375 -0.03125,-1.3125 -0.03125,-1.79687 0,-0.42188 0,-1.5625 0.03125,-1.92188 h -0.46875 v 0.3125 c 0,1.17188 -0.171875,1.20313 -0.75,1.20313 z m -0.53125,-9.55859 c -0.859375,0 -1.5,0 -2.125,0.70312 -0.515625,0.5625 -0.734375,1.28126 -0.734375,1.98438 0,1.29688 0.859375,2.3125 1.890625,2.3125 0.46875,0 0.6875,-0.3125 0.6875,-0.67188 0,-0.39062 -0.265625,-0.65624 -0.65625,-0.65624 -0.640625,0 -0.640625,0.57812 -0.640625,0.8125 -0.671875,-0.375 -0.96875,-1.14063 -0.96875,-1.76563 0,-0.73437 0.609375,-1.67187 2.046875,-1.67187 h 0.640625 c 0.04687,3.20312 1.390625,4.40624 2.609375,4.40624 1.265625,0 1.65625,-1.46874 1.65625,-2.4375 0,-1.04687 -0.640625,-1.76562 -1.40625,-2.07812 0.75,-0.0625 1.328125,-0.54688 1.328125,-1.23438 0,-0.34374 -0.21875,-1.26562 -1.5,-1.26562 h -0.890625 v 0.35938 h 0.890625 c 0.90625,0 1.046875,0.375 1.046875,0.60937 0,0.59375 -0.859375,0.59375 -1.09375,0.59375 z m 2,1.04688 c 1.5625,0 2.09375,1.15624 2.09375,1.84374 0,0.78126 -0.578125,1.4375 -1.34375,1.4375 -2.109375,0 -2.296875,-2.71874 -2.328125,-3.28124 z m -0.640625,-4.57422 c 0.5,-0.75 0.5,-1.39063 0.5,-1.5625 0,-1.4375 -1.078125,-2.5 -2.3125,-2.5 -0.421875,0 -1.03125,0.125 -1.546875,0.625 -0.640625,-0.60938 -0.640625,-1.35938 -0.640625,-1.45313 0,-0.0625 0,-0.14062 0.03125,-0.20312 0.0625,0.15625 0.234375,0.25 0.40625,0.25 0.21875,0 0.40625,-0.17188 0.40625,-0.42188 0,-0.125 -0.07813,-0.42187 -0.421875,-0.42187 -0.28125,0 -0.734375,0.23437 -0.734375,0.78125 0,0.84375 0.515625,1.45312 0.75,1.6875 -0.375,0.46875 -0.578125,1.03125 -0.578125,1.64062 0,1.42188 1.09375,2.5 2.3125,2.5 0.90625,0 1.5,-0.5625 1.640625,-0.71875 0.234375,0.1875 0.703125,0.46875 1.328125,0.46875 0.921875,0 1.3125,-0.54687 1.40625,-0.67187 0.203124,0.73437 0.781249,1.45312 1.609374,1.45312 1.09375,0 2,-1.48437 2,-3.45312 0,-1.89063 -0.84375,-3.46875 -2.03125,-3.46875 -0.40625,0 -1.34375,0.10937 -1.843749,1.0625 -0.40625,0.8125 -0.40625,1.60937 -0.40625,2.98437 0,0.96875 0,1.07813 -0.3125,1.375 -0.15625,0.15625 -0.453125,0.29688 -0.796875,0.29688 -0.265625,0 -0.53125,-0.0937 -0.765625,-0.25 z m 0.171875,-1.57813 c 0,1.39063 -1.609375,1.39063 -1.984375,1.39063 -0.28125,0 -0.9375,0 -1.375,-0.26563 -0.453125,-0.29687 -0.609375,-0.78125 -0.609375,-1.10937 0,-1.40625 1.609375,-1.40625 1.96875,-1.40625 0.28125,0 0.9375,0 1.375,0.26562 0.453125,0.3125 0.625,0.78125 0.625,1.125 z m 5.65625,-0.4375 c 0,1.53125 -0.78125,2.6875 -1.6875,2.6875 -0.140625,0 -0.75,-0.0312 -1.171875,-0.625 -0.21875,-0.35937 -0.21875,-0.5 -0.21875,-1.60937 0,-1.32813 0,-3.125 1.390625,-3.125 0.9375,0 1.6875,1.20312 1.6875,2.67187 z m -6.640625,-10 c 0,-0.34375 0,-0.375 -0.296875,-0.375 -1.609375,0 -3.109375,0.85938 -3.109375,2.78125 0,1.82813 1.640625,3.21875 3.625,3.21875 2.09375,0 3.640625,-1.625 3.640625,-3.39062 0,-1.89063 -1.71875,-2.60938 -2.046875,-2.60938 -0.109374,0 -0.171875,0.0781 -0.171875,0.17188 0,0.125 0.09375,0.15625 0.171875,0.1875 1.328125,0.42187 1.703125,1.48437 1.703125,2.15625 0,0.67187 -0.453125,2.28125 -3.203125,2.28125 h -0.3125 z M 44.347656,115.5 c -2.5,-0.125 -2.796875,-1.53125 -2.796875,-1.98437 0,-1.70313 2.25,-1.79688 2.796875,-1.8125 z M 42.988281,98.566408 c -0.34375,-0.140625 -1.03125,-0.421874 -1.046875,-1.4375 h -0.46875 c 0.03125,0.46875 0.03125,0.6875 0.03125,1.1875 0,0.328126 0,0.5625 -0.03125,1.296875 h 0.46875 c 0.03125,-0.671875 0.515625,-0.75 0.6875,-0.75 0.140625,0 0.21875,0.03125 0.40625,0.109373 l 4.109375,1.625004 -4.484375,1.79687 c -0.21875,0.0781 -0.21875,0.0937 -0.3125,0.0937 -0.40625,0 -0.40625,-0.60938 -0.40625,-0.89063 h -0.46875 c 0.03125,0.39063 0.03125,1.21875 0.03125,1.65625 0,0.51563 0,0.54688 -0.03125,1.53125 h 0.46875 c 0,-0.89062 0.0625,-1.0625 0.5625,-1.25 l 5.703125,-2.28125 c 0.21875,-0.0781 0.296875,-0.10937 0.296875,-0.29687 0,-0.10937 -0.03125,-0.20313 -0.296875,-0.32813 z m 1.109375,-7.011718 c -0.859375,0 -1.5,0 -2.125,0.703125 -0.515625,0.5625 -0.734375,1.281249 -0.734375,1.984375 0,1.296874 0.859375,2.3125 1.890625,2.3125 0.46875,0 0.6875,-0.3125 0.6875,-0.671875 0,-0.390625 -0.265625,-0.656251 -0.65625,-0.656251 -0.640625,0 -0.640625,0.578126 -0.640625,0.8125 -0.671875,-0.375 -0.96875,-1.140625 -0.96875,-1.765625 0,-0.734375 0.609375,-1.671875 2.046875,-1.671875 h 0.640625 c 0.04687,3.203126 1.390625,4.406251 2.609375,4.406251 1.265625,0 1.65625,-1.468751 1.65625,-2.4375 0,-1.046876 -0.640625,-1.765625 -1.40625,-2.078125 0.75,-0.06249 1.328125,-0.546875 1.328125,-1.234375 0,-0.343751 -0.21875,-1.265625 -1.5,-1.265625 h -0.890625 v 0.359374 h 0.890625 c 0.90625,0 1.046875,0.375 1.046875,0.609375 0,0.593751 -0.859375,0.593751 -1.09375,0.593751 z m 2,1.046874 c 1.5625,0 2.09375,1.156251 2.09375,1.843751 0,0.781249 -0.578125,1.4375 -1.34375,1.4375 -2.109375,0 -2.296875,-2.718751 -2.328125,-3.281251 z m -8.8125,-5.421874 0.171875,2.203125 h 0.46875 c 0,-1.078125 0.109375,-1.203125 0.890625,-1.203125 h 8.359375 c 0.703125,0 0.703125,0.171874 0.703125,1.203125 h 0.46875 c -0.03125,-0.4375 -0.03125,-1.218751 -0.03125,-1.703125 0,-0.468751 0,-1.265625 0.03125,-1.718751 h -0.46875 c 0,1.015626 0,1.218751 -0.703125,1.218751 z m 4.203125,-6.429688 h 0.46875 c 0,-1.078124 0.109375,-1.218749 0.890625,-1.218749 h 2.859375 c 1.34375,0 2.484375,0.718749 2.484375,1.921874 0,1.296875 -0.75,1.390626 -1.59375,1.390626 h -5.28125 l 0.171875,2.234374 h 0.46875 c 0,-1.203125 0.04687,-1.203125 1.46875,-1.203125 h 2.390625 c 0.984375,0 1.5625,0 2.078125,-0.484375 0.421875,-0.375 0.609375,-1.031249 0.609375,-1.843749 0,-0.265625 0,-0.781251 -0.453125,-1.328125 -0.375,-0.453126 -0.984375,-0.718751 -0.984375,-0.718751 h 1.4375 l -0.15625,-2.203124 h -0.46875 c 0,1.078124 -0.109375,1.203124 -0.890625,1.203124 h -5.671875 z m 3.15625,-9.917968 c 0,-0.34375 0,-0.375 -0.296875,-0.375 -1.609375,0 -3.109375,0.859375 -3.109375,2.78125 0,1.828125 1.640625,3.21875 3.625,3.21875 2.09375,0 3.640625,-1.625 3.640625,-3.390625 0,-1.890625 -1.71875,-2.609375 -2.046875,-2.609375 -0.109374,0 -0.171875,0.07812 -0.171875,0.171875 0,0.125 0.09375,0.156249 0.171875,0.1875 1.328125,0.421875 1.703125,1.484375 1.703125,2.156249 0,0.671876 -0.453125,2.281251 -3.203125,2.281251 h -0.3125 z m -0.296875,4.406249 c -2.5,-0.125 -2.796875,-1.531249 -2.796875,-1.984374 0,-1.703125 2.25,-1.796875 2.796875,-1.8125 z m 0,0"
       style="fill:#000000;fill-opacity:1;fill-rule:nonzero;stroke:none;stroke-width:1.33333"
       aria-label="a&#10;v&#10;erage&#10;v&#10;alue" />
    <path
       id="path32"
       d="M 64.695897,77.363783 H 185.91946"
       style="fill:none;stroke:#000000;stroke-width:1;stroke-linecap:butt;stroke-linejoin:round;stroke-miterlimit:10;stroke-dasharray:none;stroke-opacity:1"
       transform="matrix(1.3333333,0,0,-1.3333333,20,240)"
       clip-path="url(#clipPath33)" />
    <path
       id="path34"
       d="m 64.695897,130.06867 6.380187,3.0539 6.380188,2.11704 6.380187,1.0304 6.380188,-0.12876 6.380187,-1.28044 6.380186,-2.34006 6.38019,-3.23436 6.38019,-3.91425 6.38018,-4.36425 6.38019,-4.58044 6.38019,-4.59208 6.38019,-4.43677 6.38018,-4.15937 6.38019,-3.801308 6.38019,-3.403514 6.38019,-2.991677 6.38018,-2.594423 6.38019,-2.221614 6.38019,-1.883314"
       style="fill:none;stroke:#1f77b4;stroke-width:1.5;stroke-linecap:square;stroke-linejoin:round;stroke-miterlimit:10;stroke-dasharray:none;stroke-opacity:1"
       transform="matrix(1.3333333,0,0,-1.3333333,20,240)"
       clip-path="url(#clipPath35)" />
    <path
       id="path36"
       d="m 64.695897,93.648997 6.380187,-4.015021 6.380188,-4.79001 6.380187,-5.541809 6.380188,-5.583334 6.380187,-5.16163 6.380186,-4.732162 6.38019,-3.811548 6.38019,-2.632724 6.38018,-1.595011 6.38019,-0.499005 6.38019,0.377956 6.38019,1.109559 6.38018,1.533443 6.38019,1.818759 6.38019,1.977012 6.38019,1.922859 6.38018,1.873393 6.38019,1.687835 6.38019,1.527706"
       style="fill:none;stroke:#ff7f0e;stroke-width:1.5;stroke-linecap:butt;stroke-linejoin:round;stroke-miterlimit:10;stroke-dasharray:5.55, 2.4;stroke-dashoffset:0;stroke-opacity:1"
       transform="matrix(1.3333333,0,0,-1.3333333,20,240)"
       clip-path="url(#clipPath37)" />
    <path
       id="path38"
       d="m 64.695897,59.719986 6.380187,-3.919648 6.380188,-4.181806 6.380187,-0.907344 6.380188,4.022497 6.380187,-0.315346 6.380186,2.758929 6.38019,3.636939 6.38019,6.673891 6.38018,4.741078 6.38019,5.638416 6.38019,3.23428 6.38019,2.26751 6.38018,2.282067 6.38019,0.775789 6.38019,0.273398 6.38019,-0.39232 6.38018,-0.677004 6.38019,-0.529035 6.38019,-0.955909"
       style="fill:none;stroke:#2ca02c;stroke-width:1.5;stroke-linecap:butt;stroke-linejoin:round;stroke-miterlimit:10;stroke-dasharray:9.6, 2.4, 1.5, 2.4;stroke-dashoffset:0;stroke-opacity:1"
       transform="matrix(1.3333333,0,0,-1.3333333,20,240)"
       clip-path="url(#clipPath39)" />
    <path
       id="path40"
       d="M 106.26119,179.71527 V 51.114338"
       style="fill:none;stroke:#000000;stroke-width:1.06667;stroke-linecap:square;stroke-linejoin:miter;stroke-miterlimit:10;stroke-dasharray:none;stroke-opacity:1" />
    <path
       id="path41"
       d="M 267.89261,179.71527 V 51.114338"
       style="fill:none;stroke:#000000;stroke-width:1.06667;stroke-linecap:square;stroke-linejoin:miter;stroke-miterlimit:10;stroke-dasharray:none;stroke-opacity:1" />
    <path
       id="path42"
       d="M 106.26119,179.71527 H 267.89261"
       style="fill:none;stroke:#000000;stroke-width:1.06667;stroke-linecap:square;stroke-linejoin:miter;stroke-miterlimit:10;stroke-dasharray:none;stroke-opacity:1" />
    <path
       id="path43"
       d="M 106.26119,51.114338 H 267.89261"
       style="fill:none;stroke:#000000;stroke-width:1.06667;stroke-linecap:square;stroke-linejoin:miter;stroke-miterlimit:10;stroke-dasharray:none;stroke-opacity:1" />
    <path
       id="path44"
       d="m 16.363038,157.62747 h 10 10"
       style="fill:none;stroke:#1f77b4;stroke-width:1.5;stroke-linecap:square;stroke-linejoin:round;stroke-miterlimit:10;stroke-dasharray:none;stroke-opacity:1"
       transform="matrix(1.3333333,0,0,-1.3333333,0,240)" />
    <path
       id="path45"
       d="m 5.3918445,-6.0824869 c 0.082031,-0.328125 0.09375,-0.4101562 0.6445312,-0.4101562 0.1640625,0 0.2695313,0 0.2695313,-0.1875 0,-0.09375 -0.058594,-0.1289063 -0.140625,-0.1289063 -0.2460938,0 -0.8554688,0.035156 -1.1015625,0.035156 -0.328125,0 -1.1367188,-0.035156 -1.4648438,-0.035156 -0.09375,0 -0.2109375,0 -0.2109375,0.1992188 0,0.1171875 0.082031,0.1171875 0.3398438,0.1171875 0.2226562,0 0.328125,0 0.5742187,0.011719 0.2460938,0.035156 0.3164063,0.070312 0.3164063,0.1992188 0,0.070312 -0.023437,0.140625 -0.046875,0.2109375 L 3.4230945,-1.5004556 C 3.1887195,-0.52779939 2.509032,-4.556429e-4 1.993407,-4.556429e-4 c -0.2578125,0 -0.7851563,-0.1054687471 -0.9492188,-0.6210937471 0.035156,0.0117188 0.1054688,0.0117188 0.1171875,0.0117188 0.3984375,0 0.65625,-0.33984375 0.65625,-0.63281241 0,-0.3164063 -0.2695312,-0.421875 -0.4453125,-0.421875 -0.1757812,0 -0.6679687,0.1171875 -0.6679687,0.79687491 0,0.62109375 0.5273437,1.08984375 1.3242187,1.08984375 0.9140625,0 1.9453125,-0.65625 2.1914063,-1.65234366 z m 0,0"
       style="fill:#000000;fill-opacity:1;fill-rule:nonzero;stroke:none"
       aria-label="J"
       transform="matrix(1.3333333,0,0,1.3333333,59.150718,34.496701)" />
    <path
       id="path46"
       d="m 69.887457,157.62747 h 10 10"
       style="fill:none;stroke:#ff7f0e;stroke-width:1.5;stroke-linecap:butt;stroke-linejoin:round;stroke-miterlimit:10;stroke-dasharray:5.55, 2.4;stroke-dashoffset:0;stroke-opacity:1"
       transform="matrix(1.3333333,0,0,-1.3333333,0,240)" />
    <g
       id="g46"
       aria-label="Cov(J,Λ)"
       transform="matrix(1.3333333,0,0,1.3333333,130.51661,34.496701)">
      <path
         id="path47"
         d="m 0.56176151,-3.4106119 c 0,2.0625 1.60546879,3.63281251 3.45703129,3.63281251 1.6289062,0 2.6015625,-1.38281251 2.6015625,-2.54296871 0,-0.1054688 0,-0.1757813 -0.1289063,-0.1757813 -0.1054687,0 -0.1054687,0.070312 -0.1171875,0.1640625 -0.082031,1.42968751 -1.1484375,2.23828126 -2.2265625,2.23828126 -0.609375,0 -2.5664062,-0.33984375 -2.5664062,-3.30468746 0,-2.9765625 1.9453125,-3.3164063 2.5546875,-3.3164063 1.078125,0 1.96875,0.9023438 2.1679687,2.3671875 0.023437,0.1289063 0.023437,0.1640625 0.1640625,0.1640625 0.1523438,0 0.1523438,-0.035156 0.1523438,-0.234375 v -2.3671875 c 0,-0.1640625 0,-0.234375 -0.1054688,-0.234375 -0.035156,0 -0.082031,0 -0.1640625,0.1171875 l -0.4921875,0.7382813 c -0.375,-0.3632813 -0.8789062,-0.8554688 -1.8398437,-0.8554688 -1.8632813,0 -3.45703129,1.5820313 -3.45703129,3.609375 z M 11.879144,-2.1332681 c 0,-1.2773438 -0.996093,-2.3320313 -2.1914059,-2.3320313 -1.2539063,0 -2.2148438,1.0898438 -2.2148438,2.3320313 0,1.28906246 1.03125,2.23828121 2.203125,2.23828121 1.2070317,0 2.2031247,-0.97265625 2.2031247,-2.23828121 z m -2.1914059,1.99218746 c -0.4335938,0 -0.8671875,-0.2109375 -1.1367188,-0.66796875 C 8.2932068,-1.2426431 8.2932068,-1.8520181 8.2932068,-2.2152994 c 0,-0.3867187 0,-0.9257812 0.2460938,-1.359375 0.2695312,-0.4570312 0.7382812,-0.6679687 1.1367187,-0.6679687 0.4335937,0 0.8671877,0.2226562 1.1249997,0.6445312 0.257813,0.4335938 0.257813,1.0078125 0.257813,1.3828125 0,0.3632813 0,0.9023438 -0.222656,1.33593751 -0.222657,0.4453125 -0.65625,0.73828125 -1.1484379,0.73828125 z M 16.04516,-3.3168619 c 0.08203,-0.234375 0.257812,-0.65625 0.914062,-0.6679687 v -0.3046875 c -0.234375,0.011719 -0.515625,0.023437 -0.75,0.023437 -0.234375,0 -0.691406,-0.023437 -0.867187,-0.023437 v 0.3046875 c 0.375,0.011719 0.480469,0.234375 0.480469,0.4335937 0,0.082031 -0.02344,0.1289063 -0.05859,0.234375 l -1.019531,2.54296876 -1.113282,-2.77734376 c -0.05859,-0.140625 -0.05859,-0.1523437 -0.05859,-0.1757812 0,-0.2578125 0.386718,-0.2578125 0.5625,-0.2578125 v -0.3046875 c -0.292969,0 -0.855469,0.023437 -1.078125,0.023437 -0.269532,0 -0.667969,-0.011719 -0.972657,-0.023437 v 0.3046875 c 0.632813,0 0.667969,0.058594 0.796875,0.3632812 l 1.441407,3.53906251 c 0.05859,0.140625 0.07031,0.1875 0.199218,0.1875 0.128907,0 0.175782,-0.08203125 0.210938,-0.1875 z m 4.394531,5.7070313 c 0,-0.035156 0,-0.046875 -0.164062,-0.2226563 -1.242188,-1.25390624 -1.570313,-3.12890624 -1.570313,-4.6640625 0,-1.7226562 0.386719,-3.4570312 1.605469,-4.7109375 0.128906,-0.1171875 0.128906,-0.1289062 0.128906,-0.1640625 0,-0.070312 -0.03516,-0.1054687 -0.09375,-0.1054687 -0.105469,0 -0.996094,0.6796875 -1.582031,1.9453125 -0.515625,1.1015625 -0.632813,2.203125 -0.632813,3.0351562 0,0.7851563 0.117188,1.99218751 0.65625,3.11718751 0.597657,1.21874999 1.453125,1.87499999 1.558594,1.87499999 0.05859,0 0.09375,-0.035156 0.09375,-0.1054687 z m 0,0"
         style="fill:#000000;fill-opacity:1;fill-rule:nonzero;stroke:none" />
      <path
         id="path48"
         d="m 26.422113,-6.0824869 c 0.08203,-0.328125 0.09375,-0.4101562 0.644531,-0.4101562 0.164063,0 0.269532,0 0.269532,-0.1875 0,-0.09375 -0.05859,-0.1289063 -0.140625,-0.1289063 -0.246094,0 -0.855469,0.035156 -1.101563,0.035156 -0.328125,0 -1.136719,-0.035156 -1.464844,-0.035156 -0.09375,0 -0.210937,0 -0.210937,0.1992188 0,0.1171875 0.08203,0.1171875 0.339844,0.1171875 0.222656,0 0.328125,0 0.574218,0.011719 0.246094,0.035156 0.316407,0.070312 0.316407,0.1992188 0,0.070312 -0.02344,0.140625 -0.04687,0.2109375 l -1.148438,4.5703125 c -0.234375,0.97265621 -0.914062,1.4999999571 -1.429687,1.4999999571 -0.257813,0 -0.785157,-0.1054687471 -0.949219,-0.6210937471 0.03516,0.0117188 0.105469,0.0117188 0.117187,0.0117188 0.398438,0 0.65625,-0.33984375 0.65625,-0.63281251 0,-0.3164063 -0.269531,-0.421875 -0.445312,-0.421875 -0.175781,0 -0.667969,0.1171875 -0.667969,0.79687501 0,0.62109375 0.527344,1.08984375 1.324219,1.08984375 0.914062,0 1.945312,-0.65625 2.191406,-1.65234376 z m 2.006836,6.07031251 c 0,-0.65625 -0.257812,-1.04296871 -0.644531,-1.04296871 -0.328125,0 -0.527344,0.24609371 -0.527344,0.52734371 0,0.26953125 0.199219,0.5273437471 0.527344,0.5273437471 0.117187,0 0.246094,-0.0351562471 0.351562,-0.1289062471 0.02344,-0.0234375 0.03516,-0.0351563 0.04687,-0.0351563 0.01172,0 0.02344,0.0117188 0.02344,0.15234375 0,0.73828125 -0.351563,1.33593744 -0.679688,1.66406244 -0.105468,0.1054688 -0.105468,0.1289063 -0.105468,0.1640625 0,0.070312 0.04687,0.1054688 0.09375,0.1054688 0.117187,0 0.914062,-0.7617188 0.914062,-1.93359374 z m 0,0"
         style="fill:#000000;fill-opacity:1;fill-rule:nonzero;stroke:none" />
      <path
         id="path49"
         d="m 34.528558,-6.9262369 c -0.07031,-0.1875 -0.128906,-0.2109375 -0.234375,-0.2109375 -0.164062,0 -0.175781,0.046875 -0.234375,0.2109375 l -1.910156,5.92968751 c -0.09375,0.29296875 -0.292969,0.69140625 -0.996094,0.69140625 V -4.556429e-4 C 31.481683,-0.02389314 31.997308,-0.03561189 32.07934,-0.03561189 c 0.292968,0 0.820312,0.0234375 1.125,0.0351562471 V -0.30514314 c -0.539063,-0.0117188 -0.761719,-0.28125 -0.761719,-0.52734375 0,-0.046875 0,-0.0703125 0.04687,-0.21093751 l 1.5,-4.640625 1.570312,4.89843751 c 0.04687,0.140625 0.04687,0.15234375 0.04687,0.17578125 0,0.3046875 -0.585937,0.3046875 -0.84375,0.3046875 V -4.556429e-4 C 35.114496,-0.03561189 35.817621,-0.03561189 36.192621,-0.03561189 c 0.386719,0 0.84375,0.0234375 1.230469,0.0351562471 V -0.30514314 c -0.761719,0 -0.785157,-0.0585938 -0.902344,-0.43359375 z m 6.105469,4.4296875 c 0,-0.7734375 -0.117187,-1.9804687 -0.65625,-3.1054687 -0.597656,-1.21875 -1.464844,-1.875 -1.558594,-1.875 -0.05859,0 -0.105468,0.046875 -0.105468,0.1054687 0,0.035156 0,0.046875 0.199218,0.234375 0.972657,0.984375 1.535157,2.5664063 1.535157,4.640625 0,1.71093751 -0.363282,3.45703126 -1.59375,4.7226563 -0.140625,0.1171875 -0.140625,0.1289062 -0.140625,0.1640625 0,0.058594 0.04687,0.1054687 0.105468,0.1054687 0.09375,0 0.996094,-0.6796875 1.582032,-1.94531249 0.503906,-1.1015625 0.632812,-2.20312501 0.632812,-3.04687501 z m 0,0"
         style="fill:#000000;fill-opacity:1;fill-rule:nonzero;stroke:none" />
    </g>
    <path
       id="path50"
       d="m 159.51608,157.62747 h 10 10"
       style="fill:none;stroke:#2ca02c;stroke-width:1.5;stroke-linecap:butt;stroke-linejoin:round;stroke-miterlimit:10;stroke-dasharray:9.6, 2.4, 1.5, 2.4;stroke-dashoffset:0;stroke-opacity:1"
       transform="matrix(1.3333333,0,0,-1.3333333,0,240)" />
    <g
       id="g50"
       aria-label="Cov(J,B&#10;2&#10;)"
       transform="matrix(1.3333333,0,0,1.3333333,250.02144,34.496701)">
      <path
         id="path51"
         d="m 0.56106952,-3.4106119 c 0,2.0625 1.60546878,3.63281251 3.45703128,3.63281251 1.6289062,0 2.6015625,-1.38281251 2.6015625,-2.54296871 0,-0.1054688 0,-0.1757813 -0.1289063,-0.1757813 -0.1054687,0 -0.1054687,0.070312 -0.1171875,0.1640625 -0.082031,1.42968751 -1.1484375,2.23828126 -2.2265625,2.23828126 -0.609375,0 -2.5664062,-0.33984375 -2.5664062,-3.30468746 0,-2.9765625 1.9453125,-3.3164063 2.5546875,-3.3164063 1.078125,0 1.96875,0.9023438 2.1679687,2.3671875 0.023437,0.1289063 0.023437,0.1640625 0.1640625,0.1640625 0.1523438,0 0.1523438,-0.035156 0.1523438,-0.234375 v -2.3671875 c 0,-0.1640625 0,-0.234375 -0.1054688,-0.234375 -0.035156,0 -0.082031,0 -0.1640625,0.1171875 l -0.4921875,0.7382813 c -0.375,-0.3632813 -0.8789062,-0.8554688 -1.8398437,-0.8554688 -1.8632813,0 -3.45703128,1.5820313 -3.45703128,3.609375 z M 11.881382,-2.1332681 c 0,-1.2773438 -0.996094,-2.3320313 -2.1914062,-2.3320313 -1.2539063,0 -2.2148438,1.0898438 -2.2148438,2.3320313 0,1.28906246 1.03125,2.23828121 2.203125,2.23828121 1.207031,0 2.203125,-0.97265625 2.203125,-2.23828121 z m -2.1914062,1.99218746 c -0.4335938,0 -0.8671875,-0.2109375 -1.1367188,-0.66796875 C 8.2954445,-1.2426431 8.2954445,-1.8520181 8.2954445,-2.2152994 c 0,-0.3867187 0,-0.9257812 0.2460938,-1.359375 0.2695312,-0.4570312 0.7382812,-0.6679687 1.1367187,-0.6679687 0.433594,0 0.867188,0.2226562 1.125,0.6445312 0.257813,0.4335938 0.257813,1.0078125 0.257813,1.3828125 0,0.3632813 0,0.9023438 -0.222657,1.33593751 -0.222656,0.4453125 -0.65625,0.73828125 -1.1484372,0.73828125 z M 16.047398,-3.3168619 c 0.08203,-0.234375 0.257812,-0.65625 0.914062,-0.6679687 v -0.3046875 c -0.234375,0.011719 -0.515625,0.023437 -0.75,0.023437 -0.234375,0 -0.691406,-0.023437 -0.867187,-0.023437 v 0.3046875 c 0.375,0.011719 0.480468,0.234375 0.480468,0.4335937 0,0.082031 -0.02344,0.1289063 -0.05859,0.234375 l -1.019532,2.54296876 -1.113281,-2.77734376 c -0.05859,-0.140625 -0.05859,-0.1523437 -0.05859,-0.1757812 0,-0.2578125 0.386719,-0.2578125 0.5625,-0.2578125 v -0.3046875 c -0.292968,0 -0.855468,0.023437 -1.078125,0.023437 -0.269531,0 -0.667968,-0.011719 -0.972656,-0.023437 v 0.3046875 c 0.632813,0 0.667969,0.058594 0.796875,0.3632812 l 1.441406,3.53906251 c 0.05859,0.140625 0.07031,0.1875 0.199219,0.1875 0.128906,0 0.175781,-0.08203125 0.210938,-0.1875 z m 4.394531,5.7070313 c 0,-0.035156 0,-0.046875 -0.164063,-0.2226563 -1.242187,-1.25390624 -1.570312,-3.12890624 -1.570312,-4.6640625 0,-1.7226562 0.386719,-3.4570312 1.605469,-4.7109375 0.128906,-0.1171875 0.128906,-0.1289062 0.128906,-0.1640625 0,-0.070312 -0.03516,-0.1054687 -0.09375,-0.1054687 -0.105469,0 -0.996094,0.6796875 -1.582031,1.9453125 -0.515625,1.1015625 -0.632813,2.203125 -0.632813,3.0351562 0,0.7851563 0.117188,1.99218751 0.65625,3.11718751 0.597656,1.21874999 1.453125,1.87499999 1.558594,1.87499999 0.05859,0 0.09375,-0.035156 0.09375,-0.1054687 z m 0,0"
         style="fill:#000000;fill-opacity:1;fill-rule:nonzero;stroke:none" />
      <path
         id="path52"
         d="m 26.424351,-6.0824869 c 0.08203,-0.328125 0.09375,-0.4101562 0.644531,-0.4101562 0.164063,0 0.269531,0 0.269531,-0.1875 0,-0.09375 -0.05859,-0.1289063 -0.140625,-0.1289063 -0.246093,0 -0.855468,0.035156 -1.101562,0.035156 -0.328125,0 -1.136719,-0.035156 -1.464844,-0.035156 -0.09375,0 -0.210937,0 -0.210937,0.1992188 0,0.1171875 0.08203,0.1171875 0.339843,0.1171875 0.222657,0 0.328125,0 0.574219,0.011719 0.246094,0.035156 0.316406,0.070312 0.316406,0.1992188 0,0.070312 -0.02344,0.140625 -0.04687,0.2109375 l -1.148437,4.5703125 c -0.234375,0.97265621 -0.914063,1.4999999571 -1.429688,1.4999999571 -0.257812,0 -0.785156,-0.1054687471 -0.949218,-0.6210937471 0.03516,0.0117188 0.105468,0.0117188 0.117187,0.0117188 0.398438,0 0.65625,-0.33984375 0.65625,-0.63281251 0,-0.3164063 -0.269531,-0.421875 -0.445312,-0.421875 -0.175782,0 -0.667969,0.1171875 -0.667969,0.79687501 0,0.62109375 0.527344,1.08984375 1.324219,1.08984375 0.914062,0 1.945312,-0.65625 2.191406,-1.65234376 z m 2.006836,6.07031251 c 0,-0.65625 -0.257813,-1.04296871 -0.644532,-1.04296871 -0.328125,0 -0.527343,0.24609371 -0.527343,0.52734371 0,0.26953125 0.199218,0.5273437471 0.527343,0.5273437471 0.117188,0 0.246094,-0.0351562471 0.351563,-0.1289062471 0.02344,-0.0234375 0.03516,-0.0351563 0.04687,-0.0351563 0.01172,0 0.02344,0.0117188 0.02344,0.15234375 0,0.73828125 -0.351562,1.33593744 -0.679687,1.66406244 -0.105469,0.1054688 -0.105469,0.1289063 -0.105469,0.1640625 0,0.070312 0.04687,0.1054688 0.09375,0.1054688 0.117188,0 0.914063,-0.7617188 0.914063,-1.93359374 z m 3.984375,-0.76171875 c -0.09375,0.38671875 -0.117188,0.46875 -0.902344,0.46875 -0.175781,0 -0.269531,0 -0.269531,0.19921875 0,0.1054687471 0.08203,0.1054687471 0.269531,0.1054687471 h 3.550781 c 1.570313,0 2.753906,-1.1718749571 2.753906,-2.1562499571 0,-0.7148438 -0.585937,-1.2890625 -1.546875,-1.3945313 1.03125,-0.1992187 2.085938,-0.9375 2.085938,-1.875 0,-0.7382812 -0.65625,-1.3828125 -1.851563,-1.3828125 h -3.351562 c -0.1875,0 -0.292969,0 -0.292969,0.1992188 0,0.1171875 0.09375,0.1171875 0.28125,0.1171875 0.02344,0 0.210938,0 0.375,0.011719 0.1875,0.023437 0.269531,0.035156 0.269531,0.1640625 0,0.035156 -0.01172,0.070312 -0.03516,0.1875 z m 1.5,-2.87109376 0.621093,-2.4726562 c 0.09375,-0.3515625 0.105469,-0.375 0.539063,-0.375 h 1.289062 c 0.867188,0 1.078125,0.5859375 1.078125,1.0195312 0,0.8789063 -0.855468,1.828125 -2.074218,1.828125 z m -0.445313,3.33984376 c -0.140625,0 -0.152344,0 -0.222656,-0.0117188 -0.09375,-0.0117188 -0.128906,-0.0234375 -0.128906,-0.10546875 0,-0.0234375 0,-0.046875 0.05859,-0.22265625 l 0.679688,-2.77734376 h 1.886719 c 0.960937,0 1.148437,0.7265625 1.148437,1.1601563 0,0.984375 -0.890625,1.95703121 -2.0625,1.95703121 z m 0,0"
         style="fill:#000000;fill-opacity:1;fill-rule:nonzero;stroke:none" />
      <path
         id="path53"
         d="m 41.907749,0.22805998 h -0.234375 c -0.02344,0.15234375 -0.08203,0.5625 -0.175781,0.6328125 -0.05859,0.0351563 -0.597656,0.0351563 -0.691406,0.0351563 h -1.289063 c 0.738281,-0.64453125 0.984375,-0.84375 1.394531,-1.171875 0.515625,-0.41015625 0.996094,-0.84374998 0.996094,-1.49999998 0,-0.84375 -0.738281,-1.359375 -1.628906,-1.359375 -0.867188,0 -1.453125,0.609375 -1.453125,1.2421875 0,0.3632813 0.304687,0.3984375 0.375,0.3984375 0.164062,0 0.375,-0.1171875 0.375,-0.375 0,-0.1289062 -0.05859,-0.3632812 -0.421875,-0.3632812 0.222656,-0.5039063 0.691406,-0.65625 1.019531,-0.65625 0.703125,0 1.066406,0.5507812 1.066406,1.1132812 0,0.609375 -0.433593,1.08984373 -0.65625,1.33593748 l -1.6875,1.66406252 c -0.07031,0.058594 -0.07031,0.070312 -0.07031,0.2695313 h 2.882812 z m 0,0"
         style="fill:#000000;fill-opacity:1;fill-rule:nonzero;stroke:none" />
      <path
         id="path54"
         d="m 45.74564,-2.4965494 c 0,-0.7734375 -0.117188,-1.9804687 -0.65625,-3.1054687 -0.597656,-1.21875 -1.464844,-1.875 -1.558594,-1.875 -0.05859,0 -0.105469,0.046875 -0.105469,0.1054687 0,0.035156 0,0.046875 0.199219,0.234375 0.972656,0.984375 1.535156,2.5664063 1.535156,4.640625 0,1.71093751 -0.363281,3.45703126 -1.59375,4.7226563 -0.140625,0.1171875 -0.140625,0.1289062 -0.140625,0.1640625 0,0.058594 0.04687,0.1054687 0.105469,0.1054687 0.09375,0 0.996094,-0.6796875 1.582031,-1.94531249 0.503907,-1.1015625 0.632813,-2.20312501 0.632813,-3.04687501 z m 0,0"
         style="fill:#000000;fill-opacity:1;fill-rule:nonzero;stroke:none" />
    </g>
  </g>
</svg>
